<mxfile host="65bd71144e">
    <diagram id="YGSEmCt3v_tws8AJCvMS" name="Page-1">
        <mxGraphModel dx="1378" dy="657" grid="1" gridSize="10" guides="1" tooltips="1" connect="1" arrows="1" fold="1" page="1" pageScale="1" pageWidth="850" pageHeight="1100" math="0" shadow="0">
            <root>
                <mxCell id="0"/>
                <mxCell id="1" parent="0"/>
                <mxCell id="26" value="" style="whiteSpace=wrap;html=1;aspect=fixed;" parent="1" vertex="1">
                    <mxGeometry x="120" y="50" width="630" height="630" as="geometry"/>
                </mxCell>
                <mxCell id="27" value="" style="rounded=0;whiteSpace=wrap;html=1;" parent="1" vertex="1">
                    <mxGeometry x="120" y="50" width="630" height="90" as="geometry"/>
                </mxCell>
                <mxCell id="33" value="Home" style="rounded=1;whiteSpace=wrap;html=1;fillColor=#1ba1e2;strokeColor=#006EAF;fontColor=#ffffff;" parent="1" vertex="1">
                    <mxGeometry x="130" y="90" width="100" height="40" as="geometry"/>
                </mxCell>
                <mxCell id="34" value="My Appointments" style="rounded=1;whiteSpace=wrap;html=1;" parent="1" vertex="1">
                    <mxGeometry x="240" y="90" width="100" height="40" as="geometry"/>
                </mxCell>
                <mxCell id="38" value="Signup" style="shape=delay;whiteSpace=wrap;html=1;" parent="1" vertex="1">
                    <mxGeometry x="680" y="100" width="60" height="30" as="geometry"/>
                </mxCell>
                <mxCell id="39" value="" style="shape=delay;whiteSpace=wrap;html=1;rotation=-180;" parent="1" vertex="1">
                    <mxGeometry x="620" y="100" width="60" height="30" as="geometry"/>
                </mxCell>
                <mxCell id="40" value="login/logout" style="text;html=1;strokeColor=none;fillColor=none;align=center;verticalAlign=middle;whiteSpace=wrap;rounded=0;" parent="1" vertex="1">
                    <mxGeometry x="640" y="107.5" width="30" height="15" as="geometry"/>
                </mxCell>
                <mxCell id="46" value="Enter Salon Name/specialty" style="rounded=1;whiteSpace=wrap;html=1;" parent="1" vertex="1">
                    <mxGeometry x="325" y="270" width="220" height="30" as="geometry"/>
                </mxCell>
                <mxCell id="48" value="" style="rounded=0;whiteSpace=wrap;html=1;" parent="1" vertex="1">
                    <mxGeometry x="120" y="1110" width="630" height="90" as="geometry"/>
                </mxCell>
                <mxCell id="49" value="Home" style="rounded=1;whiteSpace=wrap;html=1;" parent="1" vertex="1">
                    <mxGeometry x="130" y="1150" width="100" height="40" as="geometry"/>
                </mxCell>
                <mxCell id="50" value="My Appointments" style="rounded=1;whiteSpace=wrap;html=1;fillColor=#1ba1e2;strokeColor=#006EAF;fontColor=#ffffff;" parent="1" vertex="1">
                    <mxGeometry x="240" y="1150" width="100" height="40" as="geometry"/>
                </mxCell>
                <mxCell id="51" value="Signup" style="shape=delay;whiteSpace=wrap;html=1;" parent="1" vertex="1">
                    <mxGeometry x="680" y="1160" width="60" height="30" as="geometry"/>
                </mxCell>
                <mxCell id="52" value="" style="shape=delay;whiteSpace=wrap;html=1;rotation=-180;" parent="1" vertex="1">
                    <mxGeometry x="620" y="1160" width="60" height="30" as="geometry"/>
                </mxCell>
                <mxCell id="53" value="login/logout" style="text;html=1;strokeColor=none;fillColor=none;align=center;verticalAlign=middle;whiteSpace=wrap;rounded=0;" parent="1" vertex="1">
                    <mxGeometry x="640" y="1167.5" width="30" height="15" as="geometry"/>
                </mxCell>
                <mxCell id="55" value="My Upcoming Appointments" style="rounded=1;whiteSpace=wrap;html=1;" parent="1" vertex="1">
                    <mxGeometry x="315.5" y="1230" width="239" height="40" as="geometry"/>
                </mxCell>
                <mxCell id="60" value="Home" style="rounded=1;whiteSpace=wrap;html=1;" parent="1" vertex="1">
                    <mxGeometry x="130" y="1910" width="100" height="40" as="geometry"/>
                </mxCell>
                <mxCell id="61" value="My Appointments" style="rounded=1;whiteSpace=wrap;html=1;" parent="1" vertex="1">
                    <mxGeometry x="240" y="1910" width="100" height="40" as="geometry"/>
                </mxCell>
                <mxCell id="62" value="Signup" style="shape=delay;whiteSpace=wrap;html=1;" parent="1" vertex="1">
                    <mxGeometry x="680" y="1920" width="60" height="30" as="geometry"/>
                </mxCell>
                <mxCell id="63" value="" style="shape=delay;whiteSpace=wrap;html=1;rotation=-180;" parent="1" vertex="1">
                    <mxGeometry x="620" y="1920" width="60" height="30" as="geometry"/>
                </mxCell>
                <mxCell id="64" value="login/logout" style="text;html=1;strokeColor=none;fillColor=none;align=center;verticalAlign=middle;whiteSpace=wrap;rounded=0;" parent="1" vertex="1">
                    <mxGeometry x="640" y="1927.5" width="30" height="15" as="geometry"/>
                </mxCell>
                <mxCell id="72" value="Random Salon Photos" style="rounded=0;whiteSpace=wrap;html=1;" parent="1" vertex="1">
                    <mxGeometry x="215" y="400" width="440" height="220" as="geometry"/>
                </mxCell>
                <mxCell id="73" value="Search" style="rounded=1;whiteSpace=wrap;html=1;" parent="1" vertex="1">
                    <mxGeometry x="545" y="270" width="45" height="30" as="geometry"/>
                </mxCell>
                <mxCell id="146" value="" style="whiteSpace=wrap;html=1;aspect=fixed;" parent="1" vertex="1">
                    <mxGeometry x="120" y="700" width="630" height="630" as="geometry"/>
                </mxCell>
                <mxCell id="147" value="" style="rounded=0;whiteSpace=wrap;html=1;" parent="1" vertex="1">
                    <mxGeometry x="120" y="700" width="630" height="90" as="geometry"/>
                </mxCell>
                <mxCell id="148" value="Home" style="rounded=1;whiteSpace=wrap;html=1;" parent="1" vertex="1">
                    <mxGeometry x="130" y="740" width="100" height="40" as="geometry"/>
                </mxCell>
                <mxCell id="149" value="My Appointments" style="rounded=1;whiteSpace=wrap;html=1;fillColor=#1ba1e2;strokeColor=#006EAF;fontColor=#ffffff;" parent="1" vertex="1">
                    <mxGeometry x="240" y="740" width="100" height="40" as="geometry"/>
                </mxCell>
                <mxCell id="150" value="Signup" style="shape=delay;whiteSpace=wrap;html=1;" parent="1" vertex="1">
                    <mxGeometry x="680" y="750" width="60" height="30" as="geometry"/>
                </mxCell>
                <mxCell id="151" value="" style="shape=delay;whiteSpace=wrap;html=1;rotation=-180;" parent="1" vertex="1">
                    <mxGeometry x="620" y="750" width="60" height="30" as="geometry"/>
                </mxCell>
                <mxCell id="152" value="login/logout" style="text;html=1;strokeColor=none;fillColor=none;align=center;verticalAlign=middle;whiteSpace=wrap;rounded=0;" parent="1" vertex="1">
                    <mxGeometry x="640" y="757.5" width="30" height="15" as="geometry"/>
                </mxCell>
                <mxCell id="153" value="My Upcoming Appointments" style="rounded=1;whiteSpace=wrap;html=1;" parent="1" vertex="1">
                    <mxGeometry x="315.5" y="820" width="239" height="40" as="geometry"/>
                </mxCell>
                <mxCell id="154" value="Appt 1&lt;br&gt;Date:&lt;br&gt;Time:&lt;br&gt;Location:&lt;br&gt;Appt Reason:" style="rounded=0;whiteSpace=wrap;html=1;" parent="1" vertex="1">
                    <mxGeometry x="340" y="870" width="190" height="140" as="geometry"/>
                </mxCell>
                <mxCell id="155" value="Appt 2&lt;br&gt;Date:&lt;br&gt;Time:&lt;br&gt;Location:&lt;br&gt;Appt Reason:" style="rounded=0;whiteSpace=wrap;html=1;" parent="1" vertex="1">
                    <mxGeometry x="340" y="1050" width="190" height="140" as="geometry"/>
                </mxCell>
                <mxCell id="169" value="" style="whiteSpace=wrap;html=1;aspect=fixed;" parent="1" vertex="1">
                    <mxGeometry x="120" y="1360" width="630" height="630" as="geometry"/>
                </mxCell>
                <mxCell id="170" value="" style="rounded=0;whiteSpace=wrap;html=1;" parent="1" vertex="1">
                    <mxGeometry x="120" y="1360" width="630" height="90" as="geometry"/>
                </mxCell>
                <mxCell id="171" value="Home" style="rounded=1;whiteSpace=wrap;html=1;" parent="1" vertex="1">
                    <mxGeometry x="140" y="1400" width="100" height="40" as="geometry"/>
                </mxCell>
                <mxCell id="172" value="My Appointments" style="rounded=1;whiteSpace=wrap;html=1;" parent="1" vertex="1">
                    <mxGeometry x="250" y="1400" width="100" height="40" as="geometry"/>
                </mxCell>
                <mxCell id="173" value="Signup" style="shape=delay;whiteSpace=wrap;html=1;" parent="1" vertex="1">
                    <mxGeometry x="690" y="1410" width="60" height="30" as="geometry"/>
                </mxCell>
                <mxCell id="174" value="" style="shape=delay;whiteSpace=wrap;html=1;rotation=-180;" parent="1" vertex="1">
                    <mxGeometry x="630" y="1410" width="60" height="30" as="geometry"/>
                </mxCell>
                <mxCell id="175" value="login/logout" style="text;html=1;strokeColor=none;fillColor=none;align=center;verticalAlign=middle;whiteSpace=wrap;rounded=0;" parent="1" vertex="1">
                    <mxGeometry x="650" y="1417.5" width="30" height="15" as="geometry"/>
                </mxCell>
                <mxCell id="176" value="Salons based on Search..." style="rounded=1;whiteSpace=wrap;html=1;" parent="1" vertex="1">
                    <mxGeometry x="341" y="1480" width="189" height="40" as="geometry"/>
                </mxCell>
                <mxCell id="177" value="Salon Name:&lt;br&gt;Salon Location:&lt;br&gt;Salon Specialties:&lt;br&gt;Services:" style="rounded=0;whiteSpace=wrap;html=1;" parent="1" vertex="1">
                    <mxGeometry x="361" y="1530" width="149" height="100" as="geometry"/>
                </mxCell>
                <mxCell id="178" value="Salon Name:&lt;br&gt;Salon Location:&lt;br&gt;Salon Specialties:&lt;br&gt;Services:" style="rounded=0;whiteSpace=wrap;html=1;" parent="1" vertex="1">
                    <mxGeometry x="361" y="1640" width="149" height="100" as="geometry"/>
                </mxCell>
                <mxCell id="179" value="Salon Name:&lt;br&gt;Salon Location:&lt;br&gt;Salon Specialties:&lt;br&gt;Services:" style="rounded=0;whiteSpace=wrap;html=1;" parent="1" vertex="1">
                    <mxGeometry x="361" y="1750" width="149" height="100" as="geometry"/>
                </mxCell>
                <mxCell id="180" value="Salon Name:&lt;br&gt;Salon Location:&lt;br&gt;Salon Specialties:&lt;br&gt;Services:" style="rounded=0;whiteSpace=wrap;html=1;" parent="1" vertex="1">
                    <mxGeometry x="361" y="1860" width="149" height="100" as="geometry"/>
                </mxCell>
                <mxCell id="200" style="edgeStyle=orthogonalEdgeStyle;rounded=0;orthogonalLoop=1;jettySize=auto;html=1;exitX=0.25;exitY=1;exitDx=0;exitDy=0;" parent="1" source="202" edge="1">
                    <mxGeometry relative="1" as="geometry">
                        <mxPoint x="185" y="2320" as="targetPoint"/>
                    </mxGeometry>
                </mxCell>
                <mxCell id="201" style="edgeStyle=orthogonalEdgeStyle;rounded=0;orthogonalLoop=1;jettySize=auto;html=1;exitX=0.75;exitY=1;exitDx=0;exitDy=0;" parent="1" source="202" edge="1">
                    <mxGeometry relative="1" as="geometry">
                        <mxPoint x="365" y="2320" as="targetPoint"/>
                    </mxGeometry>
                </mxCell>
                <mxCell id="202" value="APP" style="rounded=0;whiteSpace=wrap;html=1;" parent="1" vertex="1">
                    <mxGeometry x="225" y="2220" width="109" height="40" as="geometry"/>
                </mxCell>
                <mxCell id="203" value="NavBar" style="rounded=0;whiteSpace=wrap;html=1;" parent="1" vertex="1">
                    <mxGeometry x="135" y="2320" width="100" height="30" as="geometry"/>
                </mxCell>
                <mxCell id="204" style="edgeStyle=orthogonalEdgeStyle;rounded=0;orthogonalLoop=1;jettySize=auto;html=1;exitX=0.5;exitY=1;exitDx=0;exitDy=0;entryX=0.421;entryY=0;entryDx=0;entryDy=0;entryPerimeter=0;" parent="1" source="209" target="211" edge="1">
                    <mxGeometry relative="1" as="geometry"/>
                </mxCell>
                <mxCell id="205" style="edgeStyle=orthogonalEdgeStyle;rounded=0;orthogonalLoop=1;jettySize=auto;html=1;exitX=0.5;exitY=1;exitDx=0;exitDy=0;entryX=0.5;entryY=0;entryDx=0;entryDy=0;" parent="1" source="209" target="213" edge="1">
                    <mxGeometry relative="1" as="geometry"/>
                </mxCell>
                <mxCell id="206" style="edgeStyle=orthogonalEdgeStyle;rounded=0;orthogonalLoop=1;jettySize=auto;html=1;exitX=0.5;exitY=1;exitDx=0;exitDy=0;entryX=0.5;entryY=0;entryDx=0;entryDy=0;" parent="1" source="209" target="214" edge="1">
                    <mxGeometry relative="1" as="geometry"/>
                </mxCell>
                <mxCell id="207" style="edgeStyle=orthogonalEdgeStyle;rounded=0;orthogonalLoop=1;jettySize=auto;html=1;exitX=0.5;exitY=1;exitDx=0;exitDy=0;" parent="1" source="209" target="215" edge="1">
                    <mxGeometry relative="1" as="geometry"/>
                </mxCell>
                <mxCell id="208" style="edgeStyle=orthogonalEdgeStyle;rounded=0;orthogonalLoop=1;jettySize=auto;html=1;exitX=0.5;exitY=1;exitDx=0;exitDy=0;" parent="1" source="209" target="216" edge="1">
                    <mxGeometry relative="1" as="geometry"/>
                </mxCell>
                <mxCell id="209" value="MainContent" style="rounded=0;whiteSpace=wrap;html=1;" parent="1" vertex="1">
                    <mxGeometry x="320" y="2320" width="100" height="30" as="geometry"/>
                </mxCell>
                <mxCell id="210" style="edgeStyle=orthogonalEdgeStyle;rounded=0;orthogonalLoop=1;jettySize=auto;html=1;exitX=0.5;exitY=1;exitDx=0;exitDy=0;entryX=0.5;entryY=0;entryDx=0;entryDy=0;" parent="1" source="211" target="217" edge="1">
                    <mxGeometry relative="1" as="geometry"/>
                </mxCell>
                <mxCell id="211" value="SalonDisplay" style="rounded=0;whiteSpace=wrap;html=1;" parent="1" vertex="1">
                    <mxGeometry x="145" y="2390" width="95" height="30" as="geometry"/>
                </mxCell>
                <mxCell id="212" style="edgeStyle=orthogonalEdgeStyle;rounded=0;orthogonalLoop=1;jettySize=auto;html=1;exitX=0.5;exitY=1;exitDx=0;exitDy=0;entryX=0.5;entryY=0;entryDx=0;entryDy=0;" parent="1" source="213" target="218" edge="1">
                    <mxGeometry relative="1" as="geometry"/>
                </mxCell>
                <mxCell id="213" value="Home" style="rounded=0;whiteSpace=wrap;html=1;" parent="1" vertex="1">
                    <mxGeometry x="262.5" y="2390" width="95" height="30" as="geometry"/>
                </mxCell>
                <mxCell id="214" value="MyAppts" style="rounded=0;whiteSpace=wrap;html=1;" parent="1" vertex="1">
                    <mxGeometry x="370" y="2390" width="95" height="30" as="geometry"/>
                </mxCell>
                <mxCell id="215" value="Login" style="rounded=0;whiteSpace=wrap;html=1;" parent="1" vertex="1">
                    <mxGeometry x="477.5" y="2390" width="95" height="30" as="geometry"/>
                </mxCell>
                <mxCell id="216" value="Signup" style="rounded=0;whiteSpace=wrap;html=1;" parent="1" vertex="1">
                    <mxGeometry x="585" y="2390" width="95" height="30" as="geometry"/>
                </mxCell>
                <mxCell id="217" value="Appt Form" style="rounded=0;whiteSpace=wrap;html=1;" parent="1" vertex="1">
                    <mxGeometry x="140" y="2450" width="95" height="30" as="geometry"/>
                </mxCell>
                <mxCell id="218" value="Search" style="rounded=0;whiteSpace=wrap;html=1;" parent="1" vertex="1">
                    <mxGeometry x="262.5" y="2450" width="95" height="30" as="geometry"/>
                </mxCell>
                <mxCell id="220" value="" style="shape=table;html=1;whiteSpace=wrap;startSize=0;container=1;collapsible=0;childLayout=tableLayout;" parent="1" vertex="1">
                    <mxGeometry x="29.5" y="2660" width="340.5" height="330" as="geometry"/>
                </mxCell>
                <mxCell id="221" value="" style="shape=partialRectangle;html=1;whiteSpace=wrap;collapsible=0;dropTarget=0;pointerEvents=0;fillColor=none;top=0;left=0;bottom=0;right=0;points=[[0,0.5],[1,0.5]];portConstraint=eastwest;" parent="220" vertex="1">
                    <mxGeometry width="340.5" height="111" as="geometry"/>
                </mxCell>
                <mxCell id="222" value="Brainstorm App ideas" style="shape=partialRectangle;html=1;whiteSpace=wrap;connectable=0;fillColor=none;top=0;left=0;bottom=0;right=0;overflow=hidden;" parent="221" vertex="1">
                    <mxGeometry width="113" height="111" as="geometry"/>
                </mxCell>
                <mxCell id="223" value="finalize app idea and work on project pitch" style="shape=partialRectangle;html=1;whiteSpace=wrap;connectable=0;fillColor=none;top=0;left=0;bottom=0;right=0;overflow=hidden;" parent="221" vertex="1">
                    <mxGeometry x="113" width="113" height="111" as="geometry"/>
                </mxCell>
                <mxCell id="224" value="Pitch Project" style="shape=partialRectangle;html=1;whiteSpace=wrap;connectable=0;fillColor=none;top=0;left=0;bottom=0;right=0;overflow=hidden;" parent="221" vertex="1">
                    <mxGeometry x="226" width="115" height="111" as="geometry"/>
                </mxCell>
                <mxCell id="225" value="" style="shape=partialRectangle;html=1;whiteSpace=wrap;collapsible=0;dropTarget=0;pointerEvents=0;fillColor=none;top=0;left=0;bottom=0;right=0;points=[[0,0.5],[1,0.5]];portConstraint=eastwest;" parent="220" vertex="1">
                    <mxGeometry y="111" width="340.5" height="108" as="geometry"/>
                </mxCell>
                <mxCell id="226" value="Finish working on routes and prep for the new week" style="shape=partialRectangle;html=1;whiteSpace=wrap;connectable=0;fillColor=none;top=0;left=0;bottom=0;right=0;overflow=hidden;" parent="225" vertex="1">
                    <mxGeometry width="113" height="108" as="geometry"/>
                </mxCell>
                <mxCell id="227" value="Link frontend and backend into one another&lt;br&gt;-Auth" style="shape=partialRectangle;html=1;whiteSpace=wrap;connectable=0;fillColor=none;top=0;left=0;bottom=0;right=0;overflow=hidden;" parent="225" vertex="1">
                    <mxGeometry x="113" width="113" height="108" as="geometry"/>
                </mxCell>
                <mxCell id="228" value="Complete MVPS and do some CSS styling&amp;nbsp;" style="shape=partialRectangle;html=1;whiteSpace=wrap;connectable=0;fillColor=none;top=0;left=0;bottom=0;right=0;overflow=hidden;" parent="225" vertex="1">
                    <mxGeometry x="226" width="115" height="108" as="geometry"/>
                </mxCell>
                <mxCell id="229" value="" style="shape=partialRectangle;html=1;whiteSpace=wrap;collapsible=0;dropTarget=0;pointerEvents=0;fillColor=none;top=0;left=0;bottom=0;right=0;points=[[0,0.5],[1,0.5]];portConstraint=eastwest;" parent="220" vertex="1">
                    <mxGeometry y="219" width="340.5" height="111" as="geometry"/>
                </mxCell>
                <mxCell id="230" value="Finish working on stretch goals" style="shape=partialRectangle;html=1;whiteSpace=wrap;connectable=0;fillColor=none;top=0;left=0;bottom=0;right=0;overflow=hidden;" parent="229" vertex="1">
                    <mxGeometry width="113" height="111" as="geometry"/>
                </mxCell>
                <mxCell id="231" value="Add finishing touches to app and fix bugs" style="shape=partialRectangle;html=1;whiteSpace=wrap;connectable=0;fillColor=none;top=0;left=0;bottom=0;right=0;overflow=hidden;" parent="229" vertex="1">
                    <mxGeometry x="113" width="113" height="111" as="geometry"/>
                </mxCell>
                <mxCell id="232" value="Style, fix bugs and prep for presentation" style="shape=partialRectangle;html=1;whiteSpace=wrap;connectable=0;fillColor=none;top=0;left=0;bottom=0;right=0;overflow=hidden;" parent="229" vertex="1">
                    <mxGeometry x="226" width="115" height="111" as="geometry"/>
                </mxCell>
                <mxCell id="233" value="" style="shape=table;html=1;whiteSpace=wrap;startSize=0;container=1;collapsible=0;childLayout=tableLayout;" parent="1" vertex="1">
                    <mxGeometry x="370" y="2660" width="340.5" height="330" as="geometry"/>
                </mxCell>
                <mxCell id="234" value="" style="shape=partialRectangle;html=1;whiteSpace=wrap;collapsible=0;dropTarget=0;pointerEvents=0;fillColor=none;top=0;left=0;bottom=0;right=0;points=[[0,0.5],[1,0.5]];portConstraint=eastwest;" parent="233" vertex="1">
                    <mxGeometry width="340.5" height="111" as="geometry"/>
                </mxCell>
                <mxCell id="235" value="&lt;b&gt;&lt;font color=&quot;#ffff00&quot;&gt;Get approved&amp;nbsp;&lt;/font&gt;&lt;/b&gt;" style="shape=partialRectangle;html=1;whiteSpace=wrap;connectable=0;fillColor=none;top=0;left=0;bottom=0;right=0;overflow=hidden;" parent="234" vertex="1">
                    <mxGeometry width="113" height="111" as="geometry"/>
                </mxCell>
                <mxCell id="236" value="-Cont. working on the backend&lt;br&gt;models, migrations and seed data&lt;br&gt;-build frontend components" style="shape=partialRectangle;html=1;whiteSpace=wrap;connectable=0;fillColor=none;top=0;left=0;bottom=0;right=0;overflow=hidden;" parent="234" vertex="1">
                    <mxGeometry x="113" width="113" height="111" as="geometry"/>
                </mxCell>
                <mxCell id="237" value="work on serializers and controllers&lt;br&gt;-test in postman&amp;nbsp;" style="shape=partialRectangle;html=1;whiteSpace=wrap;connectable=0;fillColor=none;top=0;left=0;bottom=0;right=0;overflow=hidden;" parent="234" vertex="1">
                    <mxGeometry x="226" width="115" height="111" as="geometry"/>
                </mxCell>
                <mxCell id="238" value="" style="shape=partialRectangle;html=1;whiteSpace=wrap;collapsible=0;dropTarget=0;pointerEvents=0;fillColor=none;top=0;left=0;bottom=0;right=0;points=[[0,0.5],[1,0.5]];portConstraint=eastwest;" parent="233" vertex="1">
                    <mxGeometry y="111" width="340.5" height="108" as="geometry"/>
                </mxCell>
                <mxCell id="239" value="&lt;b&gt;&lt;font color=&quot;#ffff00&quot;&gt;Demo Day and work on stretch goals&lt;/font&gt;&lt;/b&gt;" style="shape=partialRectangle;html=1;whiteSpace=wrap;connectable=0;fillColor=none;top=0;left=0;bottom=0;right=0;overflow=hidden;" parent="238" vertex="1">
                    <mxGeometry width="113" height="108" as="geometry"/>
                </mxCell>
                <mxCell id="240" value="create &quot;Review&quot; model, migration, controller, serializer&amp;nbsp;" style="shape=partialRectangle;html=1;whiteSpace=wrap;connectable=0;fillColor=none;top=0;left=0;bottom=0;right=0;overflow=hidden;" parent="238" vertex="1">
                    <mxGeometry x="113" width="113" height="108" as="geometry"/>
                </mxCell>
                <mxCell id="241" value="create admin functionailties&lt;br&gt;create reviews functionailty" style="shape=partialRectangle;html=1;whiteSpace=wrap;connectable=0;fillColor=none;top=0;left=0;bottom=0;right=0;overflow=hidden;" parent="238" vertex="1">
                    <mxGeometry x="226" width="115" height="108" as="geometry"/>
                </mxCell>
                <mxCell id="242" value="" style="shape=partialRectangle;html=1;whiteSpace=wrap;collapsible=0;dropTarget=0;pointerEvents=0;fillColor=none;top=0;left=0;bottom=0;right=0;points=[[0,0.5],[1,0.5]];portConstraint=eastwest;" parent="233" vertex="1">
                    <mxGeometry y="219" width="340.5" height="111" as="geometry"/>
                </mxCell>
                <mxCell id="243" value="&lt;b&gt;&lt;font color=&quot;#cc0066&quot;&gt;FINISH PROJECT!!&lt;/font&gt;&lt;/b&gt;" style="shape=partialRectangle;html=1;whiteSpace=wrap;connectable=0;fillColor=none;top=0;left=0;bottom=0;right=0;overflow=hidden;" parent="242" vertex="1">
                    <mxGeometry width="113" height="111" as="geometry"/>
                </mxCell>
                <mxCell id="244" value="&lt;b&gt;&lt;font color=&quot;#ffff00&quot;&gt;Science Fair&lt;/font&gt;&lt;/b&gt;" style="shape=partialRectangle;html=1;whiteSpace=wrap;connectable=0;fillColor=none;top=0;left=0;bottom=0;right=0;overflow=hidden;" parent="242" vertex="1">
                    <mxGeometry x="113" width="113" height="111" as="geometry"/>
                </mxCell>
                <mxCell id="245" value="&lt;b&gt;&lt;font color=&quot;#ffff00&quot;&gt;Graduation!&amp;nbsp;&lt;/font&gt;&lt;/b&gt;" style="shape=partialRectangle;html=1;whiteSpace=wrap;connectable=0;fillColor=none;top=0;left=0;bottom=0;right=0;overflow=hidden;" parent="242" vertex="1">
                    <mxGeometry x="226" width="115" height="111" as="geometry"/>
                </mxCell>
                <mxCell id="260" value="&lt;font color=&quot;#66ffff&quot;&gt;RESTDAY&lt;/font&gt;" style="whiteSpace=wrap;html=1;aspect=fixed;" parent="1" vertex="1">
                    <mxGeometry x="710.5" y="2660" width="110" height="110" as="geometry"/>
                </mxCell>
                <mxCell id="261" value="&lt;font color=&quot;#33ffff&quot;&gt;RESTDAY&lt;/font&gt;" style="whiteSpace=wrap;html=1;aspect=fixed;" parent="1" vertex="1">
                    <mxGeometry x="710.5" y="2770" width="110" height="110" as="geometry"/>
                </mxCell>
                <mxCell id="262" value="" style="whiteSpace=wrap;html=1;aspect=fixed;" parent="1" vertex="1">
                    <mxGeometry x="710.5" y="2880" width="110" height="110" as="geometry"/>
                </mxCell>
                <mxCell id="264" value="&lt;font color=&quot;#0000ff&quot;&gt;&lt;b&gt;Sunday&lt;/b&gt;&lt;/font&gt;" style="text;html=1;align=center;verticalAlign=middle;whiteSpace=wrap;rounded=0;" parent="1" vertex="1">
                    <mxGeometry x="70" y="2630" width="40" height="20" as="geometry"/>
                </mxCell>
                <mxCell id="265" value="&lt;b&gt;&lt;font color=&quot;#0000ff&quot;&gt;Monday&lt;/font&gt;&lt;/b&gt;" style="text;html=1;strokeColor=none;fillColor=none;align=center;verticalAlign=middle;whiteSpace=wrap;rounded=0;" parent="1" vertex="1">
                    <mxGeometry x="179.75" y="2630" width="40" height="20" as="geometry"/>
                </mxCell>
                <mxCell id="266" value="&lt;font color=&quot;#0000ff&quot;&gt;&lt;b&gt;Tuesday&lt;/b&gt;&lt;/font&gt;" style="text;html=1;strokeColor=none;fillColor=none;align=center;verticalAlign=middle;whiteSpace=wrap;rounded=0;" parent="1" vertex="1">
                    <mxGeometry x="295" y="2630" width="40" height="20" as="geometry"/>
                </mxCell>
                <mxCell id="267" value="&lt;b&gt;&lt;font color=&quot;#0000ff&quot;&gt;Wednesday&lt;/font&gt;&lt;/b&gt;" style="text;html=1;strokeColor=none;fillColor=none;align=center;verticalAlign=middle;whiteSpace=wrap;rounded=0;" parent="1" vertex="1">
                    <mxGeometry x="405" y="2630" width="40" height="20" as="geometry"/>
                </mxCell>
                <mxCell id="268" value="&lt;font color=&quot;#0000ff&quot;&gt;&lt;b&gt;Thursday&lt;/b&gt;&lt;/font&gt;" style="text;html=1;strokeColor=none;fillColor=none;align=center;verticalAlign=middle;whiteSpace=wrap;rounded=0;" parent="1" vertex="1">
                    <mxGeometry x="514.5" y="2630" width="40" height="20" as="geometry"/>
                </mxCell>
                <mxCell id="270" value="&lt;b&gt;&lt;font color=&quot;#0000ff&quot;&gt;Friday&lt;/font&gt;&lt;/b&gt;" style="text;html=1;strokeColor=none;fillColor=none;align=center;verticalAlign=middle;whiteSpace=wrap;rounded=0;" parent="1" vertex="1">
                    <mxGeometry x="630" y="2630" width="40" height="20" as="geometry"/>
                </mxCell>
                <mxCell id="271" value="&lt;b&gt;&lt;font color=&quot;#0000ff&quot;&gt;Saturday&lt;/font&gt;&lt;/b&gt;" style="text;html=1;strokeColor=none;fillColor=none;align=center;verticalAlign=middle;whiteSpace=wrap;rounded=0;" parent="1" vertex="1">
                    <mxGeometry x="745.5" y="2630" width="40" height="20" as="geometry"/>
                </mxCell>
                <mxCell id="272" value="Start working on backend" style="text;html=1;strokeColor=none;fillColor=none;align=center;verticalAlign=middle;whiteSpace=wrap;rounded=0;" parent="1" vertex="1">
                    <mxGeometry x="392.5" y="2740" width="65" height="20" as="geometry"/>
                </mxCell>
                <mxCell id="283" value="has many" style="edgeStyle=orthogonalEdgeStyle;rounded=0;orthogonalLoop=1;jettySize=auto;html=1;exitX=1;exitY=0.25;exitDx=0;exitDy=0;" parent="1" source="273" edge="1">
                    <mxGeometry relative="1" as="geometry">
                        <mxPoint x="280" y="3095" as="targetPoint"/>
                    </mxGeometry>
                </mxCell>
                <mxCell id="290" value="has many" style="edgeStyle=orthogonalEdgeStyle;rounded=0;orthogonalLoop=1;jettySize=auto;html=1;exitX=0.75;exitY=1;exitDx=0;exitDy=0;entryX=0;entryY=0.25;entryDx=0;entryDy=0;" parent="1" source="273" target="277" edge="1">
                    <mxGeometry relative="1" as="geometry"/>
                </mxCell>
                <mxCell id="273" value="User" style="rounded=0;whiteSpace=wrap;html=1;" parent="1" vertex="1">
                    <mxGeometry x="50" y="3080" width="120" height="60" as="geometry"/>
                </mxCell>
                <mxCell id="284" value="belongs to" style="edgeStyle=orthogonalEdgeStyle;rounded=0;orthogonalLoop=1;jettySize=auto;html=1;exitX=0;exitY=0.75;exitDx=0;exitDy=0;entryX=1;entryY=0.75;entryDx=0;entryDy=0;" parent="1" source="274" target="273" edge="1">
                    <mxGeometry relative="1" as="geometry"/>
                </mxCell>
                <mxCell id="286" value="belongs to" style="edgeStyle=orthogonalEdgeStyle;rounded=0;orthogonalLoop=1;jettySize=auto;html=1;exitX=1;exitY=0.75;exitDx=0;exitDy=0;entryX=0;entryY=0.75;entryDx=0;entryDy=0;" parent="1" source="274" target="275" edge="1">
                    <mxGeometry relative="1" as="geometry"/>
                </mxCell>
                <mxCell id="274" value="Appointment" style="rounded=0;whiteSpace=wrap;html=1;" parent="1" vertex="1">
                    <mxGeometry x="285" y="3080" width="120" height="60" as="geometry"/>
                </mxCell>
                <mxCell id="285" value="has many" style="edgeStyle=orthogonalEdgeStyle;rounded=0;orthogonalLoop=1;jettySize=auto;html=1;exitX=0;exitY=0.25;exitDx=0;exitDy=0;entryX=1;entryY=0.25;entryDx=0;entryDy=0;" parent="1" source="275" target="274" edge="1">
                    <mxGeometry relative="1" as="geometry"/>
                </mxCell>
                <mxCell id="287" value="has many" style="edgeStyle=orthogonalEdgeStyle;rounded=0;orthogonalLoop=1;jettySize=auto;html=1;exitX=1;exitY=0.25;exitDx=0;exitDy=0;entryX=0;entryY=0.25;entryDx=0;entryDy=0;" parent="1" source="275" target="276" edge="1">
                    <mxGeometry relative="1" as="geometry"/>
                </mxCell>
                <mxCell id="292" value="has many" style="edgeStyle=orthogonalEdgeStyle;rounded=0;orthogonalLoop=1;jettySize=auto;html=1;exitX=0.25;exitY=1;exitDx=0;exitDy=0;entryX=1;entryY=0.25;entryDx=0;entryDy=0;" parent="1" source="275" target="277" edge="1">
                    <mxGeometry relative="1" as="geometry"/>
                </mxCell>
                <mxCell id="275" value="Salon" style="rounded=0;whiteSpace=wrap;html=1;" parent="1" vertex="1">
                    <mxGeometry x="514.5" y="3080" width="120" height="60" as="geometry"/>
                </mxCell>
                <mxCell id="288" value="belongs to" style="edgeStyle=orthogonalEdgeStyle;rounded=0;orthogonalLoop=1;jettySize=auto;html=1;exitX=0;exitY=0.5;exitDx=0;exitDy=0;entryX=1;entryY=0.5;entryDx=0;entryDy=0;" parent="1" source="276" target="275" edge="1">
                    <mxGeometry relative="1" as="geometry"/>
                </mxCell>
                <mxCell id="276" value="Service" style="rounded=0;whiteSpace=wrap;html=1;" parent="1" vertex="1">
                    <mxGeometry x="720" y="3080" width="120" height="60" as="geometry"/>
                </mxCell>
                <mxCell id="291" value="belongs to" style="edgeStyle=orthogonalEdgeStyle;rounded=0;orthogonalLoop=1;jettySize=auto;html=1;exitX=0;exitY=0.75;exitDx=0;exitDy=0;entryX=0.367;entryY=1.083;entryDx=0;entryDy=0;entryPerimeter=0;" parent="1" source="277" target="273" edge="1">
                    <mxGeometry relative="1" as="geometry"/>
                </mxCell>
                <mxCell id="293" value="belongs to" style="edgeStyle=orthogonalEdgeStyle;rounded=0;orthogonalLoop=1;jettySize=auto;html=1;exitX=1;exitY=0.75;exitDx=0;exitDy=0;entryX=0.596;entryY=1.067;entryDx=0;entryDy=0;entryPerimeter=0;" parent="1" source="277" target="275" edge="1">
                    <mxGeometry relative="1" as="geometry"/>
                </mxCell>
                <mxCell id="277" value="Review" style="rounded=0;whiteSpace=wrap;html=1;" parent="1" vertex="1">
                    <mxGeometry x="295" y="3350" width="120" height="60" as="geometry"/>
                </mxCell>
                <mxCell id="294" value="&lt;ul&gt;&lt;li&gt;id&lt;/li&gt;&lt;li&gt;name&lt;/li&gt;&lt;li&gt;password_digest&lt;/li&gt;&lt;li&gt;email&lt;/li&gt;&lt;li&gt;admin&lt;/li&gt;&lt;/ul&gt;" style="text;strokeColor=none;fillColor=none;html=1;whiteSpace=wrap;verticalAlign=middle;overflow=hidden;" parent="1" vertex="1">
                    <mxGeometry y="3130" width="150" height="120" as="geometry"/>
                </mxCell>
                <mxCell id="295" value="&lt;ul&gt;&lt;li&gt;id&lt;/li&gt;&lt;li&gt;user_id&lt;/li&gt;&lt;li&gt;salon_id&lt;/li&gt;&lt;li&gt;date&lt;/li&gt;&lt;li&gt;Appt Description&lt;/li&gt;&lt;/ul&gt;" style="text;strokeColor=none;fillColor=none;html=1;whiteSpace=wrap;verticalAlign=middle;overflow=hidden;" parent="1" vertex="1">
                    <mxGeometry x="277.5" y="3150" width="135" height="120" as="geometry"/>
                </mxCell>
                <mxCell id="296" value="&lt;ul&gt;&lt;li&gt;id&lt;/li&gt;&lt;li&gt;name&lt;/li&gt;&lt;li&gt;location&lt;/li&gt;&lt;li&gt;specialty&lt;/li&gt;&lt;/ul&gt;" style="text;strokeColor=none;fillColor=none;html=1;whiteSpace=wrap;verticalAlign=middle;overflow=hidden;" parent="1" vertex="1">
                    <mxGeometry x="570" y="3140" width="100" height="120" as="geometry"/>
                </mxCell>
                <mxCell id="297" value="&lt;ul&gt;&lt;li&gt;id&lt;/li&gt;&lt;li&gt;salon_id&lt;/li&gt;&lt;li&gt;service name&lt;/li&gt;&lt;li&gt;price&lt;/li&gt;&lt;/ul&gt;" style="text;strokeColor=none;fillColor=none;html=1;whiteSpace=wrap;verticalAlign=middle;overflow=hidden;" parent="1" vertex="1">
                    <mxGeometry x="720" y="3150" width="120" height="100" as="geometry"/>
                </mxCell>
                <mxCell id="298" value="&lt;ul&gt;&lt;li&gt;id&lt;/li&gt;&lt;li&gt;salon_id&lt;/li&gt;&lt;li&gt;user_id&lt;/li&gt;&lt;li&gt;rating&lt;/li&gt;&lt;li&gt;comment&lt;/li&gt;&lt;/ul&gt;" style="text;strokeColor=none;fillColor=none;html=1;whiteSpace=wrap;verticalAlign=middle;overflow=hidden;" parent="1" vertex="1">
                    <mxGeometry x="292.5" y="3430" width="125" height="120" as="geometry"/>
                </mxCell>
            </root>
        </mxGraphModel>
    </diagram>
</mxfile>